{"title":"The Band Perry - If I Die Young.avi","uid":5903601,"size":38055368,"categoryP":"video","categoryS":"music_videos","magnet":"?xt=urn:btih:532e7e76a7b158c9d9bcc49fc7edbf4da0d2ff83&amp;dn=The+Band+Perry+-+If+I+Die+Young.avi&amp;tr=udp%3A%2F%2Ftracker.openbittorrent.com%3A80&amp;tr=udp%3A%2F%2Fopen.demonii.com%3A1337&amp;tr=udp%3A%2F%2Ftracker.coppersurfer.tk%3A6969&amp;tr=udp%3A%2F%2Fexodus.desync.com%3A6969","seeders":1,"leechers":0,"uploader":"wushan","files":1,"time":1287765363,"description":"                The Band Perry - If I Die Young[2010].avi\n  \n      Format : AVI\n      Format/Info : Audio Video Interleave\n      File size : 36.3 MiB\n      Duration : 3mn 50s\n      Overall bit rate : 1 322 Kbps\n      Writing application : Lavf51.12.1\n   Video\n      Format : MPEG-4 Visual\n      Format profile : Simple@L1\n      Format settings, BVOP : No\n      Format settings, QPel : No\n      Format settings, GMC : No warppoints\n      Format settings, Matrix : Default\n      Codec ID : DX50\n      Codec ID/Hint : DivX 5\n      Duration : 3mn 49s\n      Bit rate : 1 183 Kbps\n      Width : 640 pixels\n      Height : 360 pixels\n      Display aspect ratio : 16/9\n      Frame rate : 29.970 fps\n      Resolution : 24 bits\n      Colorimetry : 4:2:0\n      Scan type : Progressive\n      Bits/(Pixel*Frame) : 0.171\n      Stream size : 32.4 MiB (89%)\n      Writing library : Lavc51.40.4\n   Audio\n      Format : MPEG Audio\n      Format version : Version 1\n      Format profile : Layer 3\n      Codec ID : 55\n      Codec ID/Hint : MP3\n      Duration : 3mn 50s\n      Bit rate mode : Constant\n      Bit rate : 128 Kbps\n      Channel(s) : 2 channels\n      Sampling rate : 44.1 KHz\n      Resolution : 16 bits\n      Stream size : 3.51 MiB (10%)\n      Alignment : Aligned on interleaves\n      Interleave, duration : 26 ms (0.78 video frame)\n","torrent":{"xt":"urn:btih:532e7e76a7b158c9d9bcc49fc7edbf4da0d2ff83","amp;dn":"The+Band+Perry+-+If+I+Die+Young.avi","amp;tr":["udp%3A%2F%2Ftracker.openbittorrent.com%3A80","udp%3A%2F%2Fopen.demonii.com%3A1337","udp%3A%2F%2Ftracker.coppersurfer.tk%3A6969","udp%3A%2F%2Fexodus.desync.com%3A6969"],"infoHash":"532e7e76a7b158c9d9bcc49fc7edbf4da0d2ff83","infoHashBuffer":{"type":"Buffer","data":[83,46,126,118,167,177,88,201,217,188,196,159,199,237,191,77,160,210,255,131]},"announce":[],"urlList":[]}}